<svg xmlns="http://www.w3.org/2000/svg" width="294.803" height="294.803" viewBox="0 0 294.803 294.803"><g><g><g stroke="#12120D" stroke-miterlimit="10"><path fill="#F48E00" d="M13.421 202.756a141.851 141.851 0 0 0 20.186 31.023h215.54a141.884 141.884 0 0 0 20.185-31.023H13.421z"/><path fill="#FFED00" d="M0 151.732a141.263 141.263 0 0 0 5.681 31.023h271.392a141.285 141.285 0 0 0 5.681-31.023H0z"/><path fill="#00943D" d="M5.683 100.709A141.287 141.287 0 0 0 0 131.732h282.752a141.264 141.264 0 0 0-5.682-31.023H5.683z"/><path fill="#E7000E" d="M54.581 253.779c23.982 18.604 54.093 29.685 86.796 29.685 32.702 0 62.812-11.081 86.795-29.685H54.581z"/><path fill="#272C82" d="M33.61 49.686a141.912 141.912 0 0 0-20.186 31.023H269.33a141.88 141.88 0 0 0-20.187-31.023H33.61z"/><path fill="#611E82" d="M228.169 29.686C204.188 11.081 174.079 0 141.377 0S78.565 11.081 54.583 29.686h173.586z"/></g></g></g></svg>